<svg width="128" height="128" viewBox="0 0 128 128" fill="none" xmlns="http://www.w3.org/2000/svg">
<path d="M128 0H0V128H17.6251C15.1379 120.395 13.9131 111.746 13.9131 102.326C13.9131 64.7867 35.7826 38.9566 70.395 38.9566C85.3764 38.9566 97.6027 43.606 107.59 51.3551L95.2098 71.9198C88.1496 66.2372 80.0382 64.6145 70.5672 64.6145C56.6189 64.6145 47.6644 74.6022 45.0814 91.3057C52.1417 85.623 62.3015 82.0068 72.4614 82.0068C94.3309 82.0068 112.412 96.2995 112.412 119.891C112.412 122.705 112.156 125.412 111.664 128H128V0Z" fill="#228871"/>
<path d="M88.5939 128C88.7879 126.844 88.8889 125.656 88.8889 124.444C88.8889 112.662 79.3376 103.111 67.5556 103.111C55.7735 103.111 46.2222 112.662 46.2222 124.444C46.2222 125.656 46.3232 126.844 46.5172 128H88.5939Z" fill="#228871"/>
</svg>
